<svg viewBox="0 0 418 337" version="1.1" xmlns="http://www.w3.org/2000/svg" xmlns:xlink="http://www.w3.org/1999/xlink">
  <title>Macaca</title>
  <desc>Created with Sketch.</desc>
  <g id="macaca" stroke="none" stroke-width="1" fill="none" fill-rule="evenodd">
    <g id="face" transform="translate(0.000000, 29.355401)">
      <path d="M49.9016854,149.125436 C77.4616252,149.125436 99.8033708,126.782573 99.8033708,99.2212544 C99.8033708,71.6599361 77.4616252,49.3170732 49.9016854,49.3170732 C22.3417456,49.3170732 0,71.6599361 0,99.2212544 C0,126.782573 22.3417456,149.125436 49.9016854,149.125436 L49.9016854,149.125436 Z" id="left-ear" fill="#000000"></path>
      <path d="M368.098315,149.125436 C395.658254,149.125436 418,126.782573 418,99.2212544 C418,71.6599361 395.658254,49.3170732 368.098315,49.3170732 C340.538375,49.3170732 318.196629,71.6599361 318.196629,99.2212544 C318.196629,126.782573 340.538375,149.125436 368.098315,149.125436 L368.098315,149.125436 Z" id="right-ear" fill="#000000"></path>
      <path d="M210.174163,307.48055 C305.562485,307.48055 382.889993,244.645287 382.889993,149.149178 C382.889993,95.5815527 360.244972,61.1593556 322.042835,36.0083972 C292.141236,16.3222241 252.055321,-2.84217094e-14 210.174163,-2.84217094e-14 C170.038697,-2.84217094e-14 139.893366,9.49046325 110.567584,27.6079826 C70.1959774,52.5496313 37.4583217,93.8338873 37.4583217,149.149178 C37.4583217,244.645287 114.785841,307.48055 210.174163,307.48055 L210.174163,307.48055 Z" id="face-outer" fill="#000000"></path>
      <g id="mouth-+-left-eye-+-right-eye" transform="translate(69.101124, 43.445993)">
        <path d="M36.1614596,214.216863 C49.6517046,221.983815 61.9901181,227.930633 78.9424469,232.196652 C100.899952,237.722213 127.272824,240.411342 139.450821,240.411342 C148.922987,240.411342 176.220199,238.511464 200.684541,232.196652 C217.109884,227.956891 230.408897,220.883254 243.101977,214.216863 C274.417809,197.769825 279.630617,169.030196 279.630617,163.216029 C279.630617,131.814096 268.198184,114.316189 250.14151,103.264367 C224.327869,87.4647916 184.340466,86.020714 139.45082,86.020714 C91.9466003,86.020714 50.3183888,88.3997783 25.2431301,107.08327 C13.4751228,115.851573 3.73736106,126.69136 0.57623481,144.845638 C-0.344237229,150.131889 0.57623481,156.724004 0.57623481,163.216029 C0.57623481,167.836419 8.64020831,198.371619 36.1614596,214.216863 L36.1614596,214.216863 Z" id="mouth" fill="#FFFFFF"></path>
        <ellipse id="left-eye" fill="#FFFFFF" cx="99.390449" cy="70.4529617" rx="72.2106742" ry="70.4529617"></ellipse>
        <ellipse id="left-c" fill="#000000" cx="84.7134831" cy="69.2787456" rx="14.0898876" ry="14.0905923">
          <animate id="lefteye" attributeName="ry" values="14.0905923;5;14.0905923" dur="0.1s" begin="macaca.mouseenter" repeatDur="0.1s" repeatCount="indefinite" />
          <animate attributeName="cx" values="84.7134831;82.7134831;86.7134831;84.7134831" begin="lefteye.end" dur="0.5s" repeatDur="0.5s" repeatCount="indefinite" />
        </ellipse>
        <ellipse id="right-eye" fill="#FFFFFF" cx="179.233146" cy="70.4529617" rx="72.2106742" ry="70.4529617"></ellipse>
        <ellipse id="right-c" fill="#000000" cx="182.168539" cy="69.2787456" rx="14.0898876" ry="14.0905923">
          <animate id="righteye" attributeName="ry" values="14.0905923;5;14.0905923" dur="0.1s" begin="macaca.mouseenter" repeatDur="0.1s" repeatCount="indefinite" />
          <animate attributeName="cx" values="182.168539;180.168539;184.168539;182.168539" begin="righteye.end" dur="0.5s" repeatDur="0.5s" repeatCount="indefinite" />
        </ellipse>
      </g>
    </g>
    <g id="leaf" transform="translate(178.471910, 0.000000)">
      <path d="M38.5803787,19.6164184 C39.4741724,17.7592079 40.9469548,15.3120854 42.0508958,13.8153317 C43.971324,11.2115622 46.9489628,8.28104528 49.8006109,6.31936436 C52.474667,4.47985094 55.0238285,3.55080174 56.8990803,2.83021736 C65.3423692,-0.414201324 82.2213254,-0.300990777 88.5381115,2.83021732 C93.5294785,5.30441998 97.2740571,8.02103001 99.2755871,10.1337036 C101.317221,12.2887078 102.068082,13.8153316 102.068082,13.8153316 C102.068082,13.8153316 91.752383,12.2814218 81.6929749,12.3258316 C76.9448381,12.3467934 72.6573343,13.003978 68.7945997,13.8153317 C65.204079,14.5695078 61.460492,15.5025322 55.2722386,18.2279617 C46.5447287,22.0717301 35.5211176,27.8818154 35.5211176,27.8818154 C35.5211176,27.8818154 36.4612967,24.0196503 38.5803787,19.6164184 L38.5803787,19.6164184 Z" id="right" fill="#373737"></path>
      <path d="M36.3204169,24.9493292 C36.1960664,24.2126342 35.8609507,23.2058491 35.5380859,22.5652168 C34.9764266,21.4507656 33.8705608,20.0966341 32.632076,19.0851916 C31.4707203,18.1367387 30.1885052,17.5111225 29.2531511,17.0383501 C25.0417353,14.9097006 16.3284636,13.1168631 11.9973161,13.4020293 C5.08401404,13.8572066 0.704691269,15.2247781 0.704691269,15.2247781 C0.704691269,15.2247781 12.9399098,17.9558975 19.3941483,20.2839807 C24.0310205,21.9565287 36.3407359,28.1156044 36.3407359,28.1156044 C36.3407359,28.1156044 36.6152377,26.6959482 36.3204169,24.9493292 L36.3204169,24.9493292 L36.3204169,24.9493292 Z" id="left" fill="#373737"></path>
      <path d="M35.9057303,27.7747253 L35.9057303,34.6832066" id="center" stroke="#000000"></path>
    </g>
  </g>
</svg>
